<?xml version="1.0" encoding="utf-8"?>
<!-- Generator: Adobe Illustrator 27.2.0, SVG Export Plug-In . SVG Version: 6.00 Build 0)  -->
<svg version="1.1" id="Capa_1" xmlns="http://www.w3.org/2000/svg" xmlns:xlink="http://www.w3.org/1999/xlink" x="0px" y="0px"
	 viewBox="0 0 256 256" style="enable-background:new 0 0 256 256;" xml:space="preserve">
<style type="text/css">
	.st0{fill:#010202;}
	.st1{fill:#BCBCBB;}
	.st2{fill:#A3A2A2;}
</style>
<g>
	<path class="st0" d="M256,4.8v246.4c0,2.7-2.2,4.8-4.8,4.8H4.8c-2.7,0-4.8-2.2-4.8-4.8V4.8C0,2.2,2.2,0,4.8,0h246.4
		C253.8,0,256,2.2,256,4.8z"/>
	<g>
		<g>
			<path class="st1" d="M204.5,143c-7,35.7-38.4,62.6-76.1,62.6c-13,0-25.2-3.2-35.9-8.8v52.8c11.4,3.4,23.4,5.2,35.9,5.2
				c64.9,0,118.4-48.8,125.8-111.7H204.5z M128.4,1.3c-15.8,0-30.9,2.9-44.8,8.2l41.1,41.1c1.2-0.1,2.5-0.1,3.7-0.1
				c37.7,0,69.1,26.9,76.1,62.6h49.7C246.9,50.1,193.3,1.3,128.4,1.3z M91.5,59.8L75.1,43.3l-3.1-3.1l-16-16
				c-0.2,0.1-0.3,0.2-0.4,0.3C22.9,47.3,1.7,85.2,1.7,128c0,45.9,24.4,86,60.8,108.3v-67.3c-4.5-7.2-7.8-15.2-9.8-23.8
				c-0.3-1.4-0.6-2.9-0.9-4.3c-0.7-4.2-1.1-8.5-1.1-12.8C50.9,98.5,67.3,72.9,91.5,59.8z"/>
			<rect x="45.5" y="119.1" class="st1" width="79.2" height="49.8"/>
			<g>
				<path class="st2" d="M29.8,145.2c-0.2-1.4-0.5-2.9-0.7-4.3c-0.5-4.2-0.8-8.5-0.8-12.8c0-35.7,18.7-67,46.8-84.7l-3.1-3.1
					c-28.8,18.6-48,51-48,87.9c0,32.7,15,61.9,38.6,81.1v-5.7C45.6,188.6,33.8,168.3,29.8,145.2z M221.4,80.3
					c-17.3-33.7-52.5-56.7-92.9-56.7c-9.4,0-18.5,1.2-27.1,3.6l3.5,3.5c7.6-1.8,15.5-2.8,23.6-2.8c38.8,0,72.4,22,89,54.2
					c1.3,2.5,2.5,5.1,3.6,7.8c0,0,0.1,0,0.2,0c1.5,0,2.9-0.7,3.8-1.8C223.9,85.4,222.7,82.8,221.4,80.3z M221,167.5
					c-0.2,0-0.3,0-0.5,0c-1.1,2.5-2.3,5-3.6,7.4c-16.8,31.7-50.1,53.2-88.5,53.2c-12.7,0-24.8-2.4-35.9-6.6v4.6
					c11.2,4.1,23.3,6.3,35.9,6.3c40,0,74.7-22.4,92.2-55.4c1.4-2.6,2.7-5.3,3.8-8C223.7,168.1,222.4,167.5,221,167.5z"/>
				<path class="st2" d="M225.8,172.3c0,2.7-2.2,4.8-4.8,4.8c-0.1,0-0.2,0-0.3,0c-1.6-0.1-2.9-0.9-3.8-2.2c-0.5-0.8-0.8-1.7-0.8-2.6
					c0-2.5,1.9-4.5,4.3-4.8c0.2,0,0.3,0,0.5,0c1.4,0,2.7,0.6,3.6,1.6C225.3,169.9,225.8,171,225.8,172.3z"/>
				<path class="st2" d="M226,85.1c0,1.1-0.4,2.2-1,3c-0.9,1.1-2.2,1.8-3.8,1.8c-0.1,0-0.1,0-0.2,0c-2.6-0.1-4.6-2.2-4.6-4.8
					c0-1.1,0.4-2.2,1-3c0.9-1.1,2.2-1.8,3.8-1.8c0.1,0,0.1,0,0.2,0C224,80.3,226,82.5,226,85.1z"/>
			</g>
		</g>
	</g>
</g>
</svg>
