<?xml version="1.0" encoding="utf-8"?>
<!-- Generator: Adobe Illustrator 16.0.0, SVG Export Plug-In . SVG Version: 6.00 Build 0)  -->
<!DOCTYPE svg PUBLIC "-//W3C//DTD SVG 1.1//EN" "http://www.w3.org/Graphics/SVG/1.1/DTD/svg11.dtd">
<svg version="1.1" id="Capa_1" xmlns="http://www.w3.org/2000/svg" xmlns:xlink="http://www.w3.org/1999/xlink" x="0px" y="0px"
	 width="100px" height="100px" viewBox="0 0 100 100" enable-background="new 0 0 100 100" xml:space="preserve">
<g>
	<path fill-rule="evenodd" clip-rule="evenodd" fill="#FFFFFF" d="M60.837,80.67c0.774,1.819,1.491,3.526,2.227,5.224
		c0.415,0.958,0.623,2.27,1.361,2.751c0.744,0.484,2.03,0.146,3.078,0.154c1.287,0.009,2.575-0.015,3.861,0.006
		c2.728,0.046,4.859,2.166,4.878,4.829c0.02,2.711-2.117,4.912-4.892,4.914c-16.26,0.017-32.52,0.017-48.779-0.001
		c-2.723-0.002-4.852-2.176-4.866-4.838c-0.015-2.708,2.13-4.872,4.905-4.902c2.334-0.026,4.67-0.005,7.028-0.005
		c1.147-2.68,2.276-5.316,3.482-8.132c-0.484,0-0.834,0-1.185,0c-6.199,0-12.398,0.004-18.598-0.001
		c-5.212-0.004-8.644-3.442-8.645-8.665c-0.002-16.463-0.003-32.926,0.001-49.39c0.001-5.161,3.442-8.616,8.586-8.619
		c11.416-0.004,22.832-0.001,34.248-0.001c0.303,0,0.607,0,0.991,0c0,1.06,0,2.088,0,3.252c-0.371,0-0.764,0-1.156,0
		c-11.313,0-22.628,0-33.942,0.001c-3.527,0-5.475,1.941-5.475,5.461c-0.001,13.516,0,27.032,0,40.548c0,0.335,0,0.67,0,1.078
		c26.012,0,51.973,0,78.043,0c0-6.446,0-12.894,0-19.391c1.113,0,2.116,0,3.268,0c0,0.354,0,0.711,0,1.068
		c0,8.672,0.003,17.344-0.002,26.016c-0.003,5.211-3.445,8.637-8.67,8.641c-6.166,0.004-12.33,0.001-18.495,0.001
		C61.722,80.67,61.355,80.67,60.837,80.67z M7.946,67.699c0,1.496-0.001,2.882,0,4.267c0.004,3.511,1.953,5.451,5.489,5.451
		c11.654,0.002,23.309,0,34.963,0c10.808,0,21.614,0.003,32.422-0.002c2.664-0.002,4.764-1.551,5.064-4.038
		c0.225-1.855,0.044-3.76,0.044-5.679C59.943,67.699,34.005,67.699,7.946,67.699z M33.213,88.733c9.239,0,18.323,0,27.523,0
		c-1.117-2.611-2.178-5.128-3.287-7.625c-0.096-0.218-0.507-0.419-0.772-0.42c-6.467-0.023-12.935-0.023-19.402,0
		c-0.266,0-0.678,0.2-0.774,0.416C35.392,83.601,34.331,86.12,33.213,88.733z M46.978,92.054c-7.894,0-15.787,0-23.68,0.001
		c-0.338,0-0.689-0.033-1.012,0.041c-0.819,0.19-1.309,0.725-1.313,1.58c-0.003,0.854,0.489,1.39,1.303,1.586
		c0.322,0.078,0.674,0.043,1.012,0.043c15.787,0.002,31.574,0.002,47.36,0.001c0.305,0,0.617,0.03,0.913-0.025
		c0.874-0.162,1.408-0.698,1.41-1.596c0.002-0.897-0.524-1.443-1.401-1.603c-0.329-0.06-0.676-0.027-1.014-0.027
		C62.697,92.053,54.837,92.054,46.978,92.054z"/>
	<path fill-rule="evenodd" clip-rule="evenodd" fill="#FFFFFF" d="M84.629,40.522c0.198,3.085,0.198,3.085-2.659,4.176
		c-1.042,0.397-2.089,0.784-3.123,1.202c-0.873,0.353-1.579,0.151-2.177-0.551c-0.769-0.902-1.533-1.808-2.317-2.697
		c-0.671-0.76-2.993-0.812-3.692-0.09c-0.801,0.827-1.603,1.654-2.379,2.504c-0.656,0.718-1.391,0.89-2.281,0.487
		c-1.509-0.682-3.022-1.359-4.543-2.015c-0.824-0.355-1.188-0.954-1.12-1.84c0.087-1.147,0.183-2.294,0.247-3.443
		c0.071-1.271-1.511-2.899-2.765-2.864c-1.083,0.032-2.166,0.075-3.249,0.115c-0.958,0.035-1.603-0.361-1.944-1.291
		c-0.571-1.555-1.176-3.097-1.789-4.636c-0.352-0.883-0.122-1.576,0.581-2.167c0.804-0.675,1.598-1.361,2.394-2.046
		c1.148-0.989,1.215-3.146,0.135-4.173c-0.786-0.747-1.557-1.508-2.352-2.244c-0.66-0.611-0.784-1.318-0.433-2.117
		c0.693-1.579,1.399-3.152,2.102-4.727c0.329-0.739,0.909-1.063,1.705-1.008c1.217,0.082,2.431,0.188,3.648,0.251
		c1.122,0.059,2.77-1.571,2.741-2.689c-0.03-1.117-0.077-2.233-0.117-3.351c-0.034-0.962,0.378-1.589,1.31-1.928
		c1.524-0.555,3.034-1.152,4.539-1.76C68,1.252,68.725,1.445,69.348,2.191c0.715,0.858,1.447,1.702,2.182,2.545
		c0.803,0.921,3.062,0.976,3.899,0.101c0.773-0.807,1.559-1.603,2.31-2.429c0.631-0.693,1.349-0.854,2.195-0.479
		c1.545,0.684,3.086,1.38,4.635,2.058c0.78,0.341,1.138,0.92,1.081,1.763c-0.053,0.776-0.026,1.569-0.177,2.327
		c-0.277,1.385,0.026,2.476,1.153,3.402c0.499,0.411,0.912,0.707,1.588,0.65c1.044-0.089,2.097-0.083,3.145-0.13
		c1.002-0.045,1.667,0.357,2.021,1.331c0.555,1.524,1.149,3.035,1.754,4.541c0.369,0.918,0.146,1.641-0.598,2.252
		c-0.576,0.473-1.076,1.071-1.713,1.429c-1.51,0.848-1.602,2.213-1.485,3.666c0.023,0.293,0.234,0.621,0.452,0.84
		c0.858,0.865,1.75,1.698,2.639,2.532c0.624,0.585,0.744,1.281,0.418,2.036c-0.683,1.583-1.403,3.15-2.099,4.728
		c-0.345,0.782-0.941,1.116-1.779,1.055c-1.182-0.084-2.363-0.186-3.546-0.249c-1.195-0.064-2.816,1.547-2.796,2.739
		C84.636,39.439,84.629,39.981,84.629,40.522z M88.073,15.375c-1.267,0.332-2.408-0.317-3.671-1.448
		c-2.058-1.841-2.731-3.88-2.112-6.474c0.14-0.587-0.001-0.959-0.654-1.236c-2.131-0.902-2.115-0.938-3.732,0.747
		c-0.352,0.367-0.674,0.771-1.066,1.086c-0.331,0.266-0.74,0.597-1.122,0.608c-2.819,0.08-5.779,0.47-7.431-2.699
		c-0.091-0.175-0.283-0.295-0.392-0.464c-0.294-0.458-0.632-0.448-1.12-0.266c-2.227,0.832-2.233,0.814-2.164,3.218
		c0.007,0.271-0.014,0.546,0.025,0.812c0.159,1.114-0.394,1.847-1.086,2.681c-1.879,2.257-4.072,3.33-7.01,2.515
		c-0.233-0.064-0.68-0.039-0.747,0.091c-0.437,0.836-0.916,1.688-1.116,2.593c-0.067,0.309,0.58,0.853,0.99,1.174
		c1.608,1.257,2.463,2.678,2.321,4.914c-0.136,2.119-0.591,3.733-2.422,4.973c-1.423,0.963-1.256,1.066-0.724,2.779
		c0.327,1.051,0.846,1.41,1.888,1.203c2.303-0.459,4.003,0.326,5.567,2.148c1.178,1.372,1.786,2.611,1.562,4.42
		c-0.277,2.232-0.163,2.223,1.897,3.148c0.55,0.247,0.946,0.277,1.286-0.252c1.671-2.601,4.079-3.313,6.995-2.738
		c0.165,0.033,0.358-0.028,0.503,0.035c0.535,0.235,1.148,0.403,1.558,0.783c0.715,0.664,1.338,1.439,1.929,2.22
		c0.385,0.508,0.761,0.579,1.291,0.295c0.266-0.143,0.555-0.276,0.849-0.328c1.128-0.201,1.323-0.86,1.278-1.938
		c-0.163-3.922-0.422-2.807,2.188-5.518c1.246-1.294,2.524-1.786,4.305-1.57c2.356,0.286,2.387,0.185,3.234-2.038
		c0.106-0.281,0.01-0.788-0.192-1.01c-0.705-0.774-1.533-1.437-2.238-2.21c-0.32-0.352-0.627-0.854-0.659-1.307
		c-0.204-2.961-0.2-5.875,2.979-7.507c0.029-0.016,0.048-0.049,0.077-0.065c0.593-0.336,0.567-0.777,0.337-1.361
		C90.654,15.301,90.674,15.294,88.073,15.375z"/>
	<path fill-rule="evenodd" clip-rule="evenodd" fill="#FFFFFF" d="M68.066,57.972c0,1.078,0,2.081,0,3.133
		c-16.224,0-32.4,0-48.656,0c0-1.009,0-2.037,0-3.133C35.589,57.972,51.789,57.972,68.066,57.972z"/>
	<path fill-rule="evenodd" clip-rule="evenodd" fill="#FFFFFF" d="M19.354,54.567c0-1.064,0-2.042,0-3.094
		c13.514,0,27.004,0,40.562,0c0,1.012,0,2.039,0,3.094C46.385,54.567,32.873,54.567,19.354,54.567z"/>
	<path fill-rule="evenodd" clip-rule="evenodd" fill="#FFFFFF" d="M55.061,44.966c0,1.065,0,2.069,0,3.125
		c-11.908,0-23.771,0-35.683,0c0-1.046,0-2.05,0-3.125C31.245,44.966,43.108,44.966,55.061,44.966z"/>
	<path fill-rule="evenodd" clip-rule="evenodd" fill="#FFFFFF" d="M19.414,38.408c10.274,0,20.463,0,30.732,0
		c0,1.042,0,2.068,0,3.166c-10.218,0-20.455,0-30.732,0C19.414,40.517,19.414,39.467,19.414,38.408z"/>
	<path fill-rule="evenodd" clip-rule="evenodd" fill="#FFFFFF" d="M18.152,22.612c0.799,0.802,1.513,1.516,2.345,2.351
		c-1.262,1.19-2.506,2.363-3.875,3.652c1.39,1.279,2.628,2.418,3.916,3.604c-0.914,0.834-1.676,1.53-2.443,2.23
		c-1.567-1.536-3.264-3.134-4.879-4.813c-0.659-0.684-0.518-1.525,0.132-2.192C14.906,25.846,16.493,24.277,18.152,22.612z"/>
	<path fill-rule="evenodd" clip-rule="evenodd" fill="#FFFFFF" d="M31.074,25.051c0.932-0.88,1.665-1.572,2.569-2.426
		c0.678,0.717,1.402,1.503,2.146,2.269c0.827,0.849,1.692,1.66,2.504,2.523c0.707,0.751,0.792,1.579,0.122,2.273
		c-1.595,1.652-3.258,3.237-4.929,4.883c-0.711-0.765-1.414-1.52-2.217-2.384c1.175-1.089,2.411-2.233,3.796-3.518
		C33.652,27.389,32.385,26.239,31.074,25.051z"/>
	<path fill-rule="evenodd" clip-rule="evenodd" fill="#FFFFFF" d="M25.896,21.751c1.109,0.278,2.083,0.523,3.15,0.792
		c-1.088,4.35-2.157,8.621-3.25,12.991c-1.048-0.261-2.04-0.508-3.15-0.785C23.731,30.404,24.799,26.135,25.896,21.751z"/>
	<path fill-rule="evenodd" clip-rule="evenodd" fill="#FFFFFF" d="M16.031,38.442c0,1.055,0,2.056,0,3.127c-1.032,0-2.056,0-3.145,0
		c0-1.025,0-2.048,0-3.127C13.914,38.442,14.915,38.442,16.031,38.442z"/>
	<path fill-rule="evenodd" clip-rule="evenodd" fill="#FFFFFF" d="M16.001,48.105c-1.062,0-2.062,0-3.12,0c0-1.065,0-2.089,0-3.163
		c1.042,0,2.042,0,3.12,0C16.001,45.962,16.001,46.986,16.001,48.105z"/>
	<path fill-rule="evenodd" clip-rule="evenodd" fill="#FFFFFF" d="M16.001,54.609c-1.062,0-2.062,0-3.12,0c0-1.064,0-2.089,0-3.162
		c1.042,0,2.042,0,3.12,0C16.001,52.466,16.001,53.492,16.001,54.609z"/>
	<path fill-rule="evenodd" clip-rule="evenodd" fill="#FFFFFF" d="M63.28,54.578c0-1.069,0-2.068,0-3.124c1.042,0,2.042,0,3.126,0
		c0,0.998,0,2.023,0,3.124C65.415,54.578,64.391,54.578,63.28,54.578z"/>
	<path fill-rule="evenodd" clip-rule="evenodd" fill="#FFFFFF" d="M69.794,51.443c1.055,0,2.056,0,3.128,0c0,1.033,0,2.057,0,3.146
		c-1.025,0-2.049,0-3.128,0C69.794,53.562,69.794,52.561,69.794,51.443z"/>
	<path fill-rule="evenodd" clip-rule="evenodd" fill="#FFFFFF" d="M12.889,57.924c1.069,0,2.045,0,3.105,0c0,1.031,0,2.057,0,3.158
		c-0.988,0-2.013,0-3.105,0C12.889,60.065,12.889,59.041,12.889,57.924z"/>
	<path fill-rule="evenodd" clip-rule="evenodd" fill="#FFFFFF" d="M74.563,61.107c-1.044,0-2.045,0-3.121,0c0-1.021,0-2.046,0-3.138
		c1.014,0,2.038,0,3.121,0C74.563,58.985,74.563,59.986,74.563,61.107z"/>
	<path fill-rule="evenodd" clip-rule="evenodd" fill="#FFFFFF" d="M81.04,61.134c-1.061,0-2.037,0-3.09,0c0-1.043,0-2.068,0-3.162
		c1.006,0,2.031,0,3.09,0C81.04,59.032,81.04,60.08,81.04,61.134z"/>
	<path fill-rule="evenodd" clip-rule="evenodd" fill="#FFFFFF" d="M45.387,74.087c0-1.052,0-2.053,0-3.113c1.062,0,2.085,0,3.163,0
		c0,1.033,0,2.033,0,3.113C47.538,74.087,46.514,74.087,45.387,74.087z"/>
	<path fill-rule="evenodd" clip-rule="evenodd" fill="#FFFFFF" d="M72.933,35.326c-6.384-0.042-11.54-5.25-11.515-11.631
		c0.025-6.409,5.29-11.576,11.733-11.514c6.297,0.061,11.447,5.307,11.419,11.633C84.542,30.179,79.296,35.369,72.933,35.326z
		 M73.029,15.427c-4.542-0.023-8.315,3.681-8.361,8.21c-0.046,4.601,3.656,8.396,8.234,8.441c4.581,0.045,8.382-3.69,8.413-8.264
		C81.346,19.222,77.62,15.45,73.029,15.427z"/>
</g>
</svg>
