<?xml version="1.0" encoding="utf-8"?>
<!-- Generator: Adobe Illustrator 16.0.0, SVG Export Plug-In . SVG Version: 6.00 Build 0)  -->
<!DOCTYPE svg PUBLIC "-//W3C//DTD SVG 1.1//EN" "http://www.w3.org/Graphics/SVG/1.1/DTD/svg11.dtd">
<svg version="1.1" id="Capa_1" xmlns="http://www.w3.org/2000/svg" xmlns:xlink="http://www.w3.org/1999/xlink" x="0px" y="0px"
	 width="100px" height="100px" viewBox="0 0 100 100" enable-background="new 0 0 100 100" xml:space="preserve">
<g>
	<path fill-rule="evenodd" clip-rule="evenodd" fill="#FFFFFF" d="M92.783,1.133c0.033,0,0.066,0,0.1,0
		c0,3.638,0.004,7.277-0.006,10.916c-0.001,0.256-0.064,0.527-0.162,0.765c-2.219,5.329-4.446,10.653-6.671,15.98
		c-0.073,0.175-0.124,0.359-0.23,0.669c1.08,0,2.064,0,3.047,0c0.058,0.301,0.094,0.495,0.133,0.688
		c0.472,2.373,0.588,4.779,0.645,7.187c0.088,3.752,0.203,7.506-0.337,11.242c-0.664,4.604-2.025,8.984-4.075,13.159
		c-2.915,5.934-7.123,10.778-12.371,14.749c-0.342,0.258-0.468,0.522-0.467,0.951c0.014,6.945,0.01,13.89,0.012,20.835
		c0,0.197,0.024,0.395,0.038,0.593c-12.632,0-25.264,0-37.896,0c0.002-4.667,0.005-9.334,0.006-14.001
		c0-0.044-0.028-0.09-0.063-0.191c-5.212,0-10.434,0-15.693,0c0-6.665,0-13.271,0-19.887c-0.177-0.049-0.318-0.092-0.461-0.126
		c-1.663-0.389-3.329-0.768-4.989-1.167c-2.078-0.5-4.151-1.017-6.226-1.527c0-0.066,0-0.133,0-0.199
		c0.053-0.057,0.121-0.107,0.157-0.174c3.396-6.088,6.791-12.176,10.174-18.271c0.112-0.201,0.161-0.474,0.142-0.706
		c-0.246-2.983-0.452-5.967-0.095-8.955c0.16-1.347,0.375-2.688,0.579-4.128c1.326,0,2.583,0,3.882,0c0-0.554-0.017-1,0.004-1.444
		c0.032-0.726-0.28-1.213-0.843-1.686c-4.368-3.657-6.354-8.917-4.947-14.637c0.66-2.684,2.243-4.812,4.211-6.695
		c3.479-3.331,7.605-4.621,12.276-3.538C38.427,2.873,42,6.632,43.605,12.292c0.205,0.724,0.304,1.478,0.453,2.218
		c0.041,0.005,0.082,0.01,0.122,0.015c1.188-4.107,2.375-8.214,3.582-12.388c5.21,2.251,10.33,4.463,15.577,6.729
		c-0.38,0.234-0.624,0.397-0.879,0.539c-1.092,0.597-2.186,1.191-3.281,1.78c-0.273,0.147-0.384,0.308-0.234,0.634
		c1.208,2.622,2.397,5.251,3.609,7.872c0.059,0.125,0.266,0.256,0.404,0.256c1.345-0.002,2.692-0.003,4.035-0.073
		c0.371-0.019,0.764-0.21,1.088-0.416c0.794-0.501,1.04-1.319,1.061-2.195c0.052-2.125,0.071-4.251,0.101-6.377
		c0.001-0.079-0.013-0.158-0.024-0.29c-1.044,0-2.065,0-3.139,0c0-0.366,0.001-0.678,0-0.989c-0.008-2.824-0.016-5.649-0.023-8.473
		c3.158,0,6.315,0,9.474,0c0,3.148,0,6.295,0,9.48c-1.065,0-2.057,0-3.077,0c-0.01,0.197-0.021,0.359-0.024,0.522
		c-0.041,2.259-0.077,4.519-0.125,6.778c-0.005,0.226-0.034,0.473-0.132,0.669c-0.275,0.548-0.569,1.09-0.896,1.608
		c-1.082,1.71-2.645,2.669-4.65,2.89c-0.786,0.087-1.578,0.123-2.396,0.184c0.042,0.128,0.058,0.209,0.091,0.283
		c0.856,1.853,1.72,3.701,2.563,5.56c0.132,0.29,0.332,0.316,0.595,0.319c2.176,0.021,4.354,0.036,6.529,0.085
		c0.4,0.009,0.573-0.112,0.729-0.477c2.917-6.853,5.847-13.7,8.791-20.542c0.13-0.3,0.369-0.592,0.631-0.791
		c2.751-2.089,5.519-4.158,8.279-6.235C92.563,1.37,92.667,1.245,92.783,1.133z M21.956,81.534c5.289,0,10.5,0,15.767,0
		c0,4.737,0,9.431,0,14.138c10.532,0,21.006,0,31.521,0c0-0.232,0-0.429,0-0.625c0-6.25,0.015-12.499-0.021-18.748
		c-0.005-0.768,0.231-1.207,0.847-1.653c4.904-3.555,9.02-7.827,11.898-13.217c2.472-4.63,4.021-9.544,4.43-14.773
		c0.192-2.464,0.135-4.949,0.136-7.424c0.001-1.911-0.094-3.821-0.125-5.731c-0.006-0.467-0.131-0.692-0.652-0.677
		c-0.68,0.021-1.361-0.058-2.042-0.063c-3.872-0.034-7.745-0.081-11.616-0.083c-14.111-0.01-28.221-0.013-42.332,0.004
		c-2.84,0.003-5.681,0.108-8.522,0.154c-0.461,0.007-0.641,0.206-0.674,0.654c-0.198,2.707-0.297,5.424,0.128,8.106
		c0.222,1.401,0.09,2.608-0.776,3.725c-0.03,0.039-0.049,0.086-0.073,0.13c-2.567,4.612-5.137,9.224-7.7,13.839
		c-0.325,0.584-0.243,0.729,0.41,0.875c1.538,0.345,3.076,0.689,4.613,1.039c1.583,0.359,3.165,0.725,4.781,1.096
		C21.956,68.703,21.956,75.079,21.956,81.534z M34.554,29.482c0-1.224,0.015-2.418-0.008-3.611
		c-0.007-0.342,0.103-0.545,0.391-0.719c0.454-0.275,0.895-0.574,1.32-0.892c3.4-2.529,4.987-5.92,4.53-10.128
		C40.094,7.743,34.62,3.518,28.239,4.42c-8.816,1.248-11.256,10.508-8.196,16.067c1.093,1.985,2.687,3.441,4.589,4.597
		c0.356,0.217,0.483,0.465,0.472,0.881c-0.031,1.159-0.011,2.318-0.011,3.512c1.072,0,2.093,0,3.127,0
		c0.014-0.081,0.033-0.144,0.033-0.207c-0.003-3.073-0.002-6.148-0.024-9.222c-0.001-0.172-0.161-0.379-0.303-0.508
		c-0.529-0.478-1.137-0.877-1.613-1.4c-1.378-1.513-1.535-3.265-0.518-4.997c1-1.705,2.896-2.734,4.604-2.453
		c1.568,0.259,2.668,1.219,3.478,2.521c0.941,1.512,0.905,3.055-0.175,4.463c-0.526,0.686-1.245,1.231-1.912,1.796
		c-0.254,0.216-0.362,0.412-0.361,0.743c0.006,2.907-0.006,5.815-0.013,8.724c0,0.175,0,0.35,0,0.543
		C32.497,29.482,33.503,29.482,34.554,29.482z M85.774,11.176c-2.632,6.131-5.237,12.199-7.873,18.337
		c1.404,0,2.698-0.016,3.991,0.01c0.38,0.007,0.55-0.124,0.691-0.465c1.866-4.504,3.746-9.003,5.623-13.502
		c0.361-0.867,0.721-1.733,1.092-2.626C88.115,12.34,86.974,11.772,85.774,11.176z M49.478,11.625
		c0.083,0.169,0.157,0.317,0.225,0.466c1.152,2.52,2.31,5.037,3.449,7.563c0.136,0.302,0.292,0.418,0.629,0.411
		c1.063-0.023,2.127-0.008,3.19-0.009c0.721,0,1.442,0,2.265,0c-0.318-0.713-0.562-1.273-0.814-1.829
		c-1.194-2.628-2.384-5.258-3.594-7.879c-0.168-0.363-0.125-0.572,0.238-0.743c0.302-0.143,0.583-0.325,0.938-0.525
		c-2.1-0.889-4.106-1.741-6.176-2.619c-0.687,1.879-1.203,3.728-1.646,5.596c0.042,0.03,0.084,0.06,0.126,0.089
		C48.683,11.979,49.057,11.812,49.478,11.625z M48.013,15.915c-0.24,0.106-0.406,0.172-0.566,0.252
		c-1.039,0.517-2.069,1.052-3.118,1.548c-0.39,0.185-0.606,0.428-0.73,0.852c-0.99,3.354-2.715,6.219-5.608,8.292
		c-0.109,0.079-0.241,0.222-0.244,0.338c-0.022,0.756-0.011,1.514-0.011,2.282c2.106,0,4.157,0,6.238,0
		c0.049-1.157,0.081-2.282,0.148-3.405c0.12-2.001,1.02-3.581,2.674-4.704c0.933-0.634,1.941-1.131,3.125-1.333
		C49.277,18.646,48.653,17.298,48.013,15.915z M63.459,29.361c-0.021-0.119-0.019-0.188-0.044-0.246
		c-0.849-1.872-1.695-3.744-2.563-5.607c-0.055-0.116-0.285-0.211-0.435-0.213c-1.676-0.02-3.353-0.02-5.029-0.021
		c-0.157,0-0.314,0.029-0.462,0.044c-0.008,0.08-0.024,0.117-0.013,0.143c0.851,1.906,1.699,3.814,2.569,5.713
		c0.056,0.121,0.277,0.235,0.422,0.238c1.676,0.03,3.353,0.04,5.029,0.046C63.104,29.459,63.276,29.396,63.459,29.361z
		 M54.086,29.412c-0.111-0.292-0.172-0.481-0.252-0.662c-0.637-1.422-1.272-2.845-1.92-4.262c-0.611-1.337-0.618-1.334-2.098-1.221
		c-1.127,0.086-2.281,0.866-2.409,1.835c-0.188,1.438-0.216,2.896-0.309,4.31C49.469,29.412,51.747,29.412,54.086,29.412z
		 M69.268,7.404c1.055,0,2.063,0,3.085,0c0-1.041,0-2.057,0-3.084c-1.049,0-2.055,0-3.085,0C69.268,5.353,69.268,6.358,69.268,7.404
		z M29.84,16.892c1.036-0.004,1.564-0.534,1.565-1.569c0.002-1.042-0.517-1.565-1.559-1.574c-1.062-0.009-1.593,0.524-1.586,1.593
		C28.265,16.373,28.798,16.895,29.84,16.892z M87.942,8.698c0.585,0.299,1.111,0.568,1.707,0.872c0-0.74,0-1.368,0-2.1
		C89.042,7.908,88.525,8.279,87.942,8.698z"/>
	<path fill-rule="evenodd" clip-rule="evenodd" fill="#FFFFFF" d="M25.095,37.436c0.959,0,1.9-0.014,2.839,0.019
		c0.113,0.004,0.296,0.253,0.312,0.403c0.274,2.524,2.137,4.228,4.677,4.25c2.587,0.024,4.499-1.668,4.811-4.233
		c0.019-0.159,0.217-0.418,0.341-0.423c0.924-0.036,1.849-0.02,2.801-0.02c-0.071,1.78-0.751,3.32-1.814,4.661
		c-1.926,2.43-4.479,3.568-7.552,2.969c-2.22-0.433-3.902-1.84-5.151-3.729C25.581,40.16,25.2,38.856,25.095,37.436z"/>
</g>
</svg>
