<?xml version="1.0" encoding="utf-8"?>
<!-- Generator: Adobe Illustrator 27.2.0, SVG Export Plug-In . SVG Version: 6.00 Build 0)  -->
<svg version="1.1" id="Capa_1" xmlns="http://www.w3.org/2000/svg" xmlns:xlink="http://www.w3.org/1999/xlink" x="0px" y="0px"
	 viewBox="0 0 23.4 23.4" style="enable-background:new 0 0 23.4 23.4;" xml:space="preserve">
<style type="text/css">
	.st0{fill:#FFFFFF;}
</style>
<g>
	<path class="st0" d="M19.4,7.4c-0.8-1.4-1.9-2.5-3.3-3.3C14.8,3.4,13.3,3,11.7,3c-1.6,0-3.1,0.4-4.5,1.2C5.9,5,4.8,6.1,4,7.4
		c-0.8,1.4-1.2,2.9-1.2,4.5c0,1.9,0.6,3.7,1.7,5.3c1.1,1.6,2.6,2.6,4.4,3.2c0.2,0,0.4,0,0.5-0.1c0.1-0.1,0.2-0.2,0.2-0.3
		c0,0,0-0.2,0-0.6c0-0.4,0-0.7,0-1l-0.3,0c-0.2,0-0.4,0-0.6,0c-0.3,0-0.5,0-0.8-0.1C7.5,18.3,7.2,18.1,7,18
		c-0.2-0.2-0.4-0.4-0.5-0.7L6.4,17c-0.1-0.2-0.2-0.4-0.4-0.6c-0.2-0.2-0.3-0.4-0.5-0.4l-0.1-0.1c-0.1,0-0.1-0.1-0.2-0.1
		c0-0.1-0.1-0.1-0.1-0.2c0-0.1,0-0.1,0.1-0.1c0.1,0,0.2-0.1,0.3-0.1l0.2,0c0.2,0,0.3,0.1,0.6,0.3c0.2,0.2,0.4,0.4,0.6,0.6
		c0.2,0.3,0.4,0.6,0.6,0.7c0.3,0.2,0.5,0.2,0.8,0.2c0.3,0,0.5,0,0.7-0.1c0.2,0,0.4-0.1,0.5-0.2c0.1-0.5,0.3-0.9,0.6-1.2
		c-0.4,0-0.8-0.1-1.2-0.2c-0.4-0.1-0.7-0.2-1.1-0.5c-0.4-0.2-0.7-0.5-0.9-0.8c-0.2-0.3-0.5-0.7-0.6-1.2C6.1,12.7,6,12.1,6,11.5
		c0-0.9,0.3-1.7,0.9-2.4C6.6,8.4,6.7,7.6,7,6.7c0.2-0.1,0.6,0,1,0.2C8.4,7,8.8,7.2,9,7.3c0.2,0.1,0.4,0.2,0.5,0.3
		c0.7-0.2,1.5-0.3,2.2-0.3c0.8,0,1.5,0.1,2.2,0.3l0.4-0.3C14.7,7.1,15,7,15.5,6.8c0.4-0.2,0.7-0.2,0.9-0.1c0.3,0.9,0.4,1.7,0.1,2.4
		c0.6,0.7,0.9,1.5,0.9,2.4c0,0.7-0.1,1.2-0.2,1.8c-0.2,0.5-0.4,0.9-0.6,1.2c-0.3,0.3-0.6,0.6-0.9,0.8c-0.4,0.2-0.7,0.4-1.1,0.5
		c-0.4,0.1-0.8,0.2-1.2,0.2c0.4,0.3,0.6,0.9,0.6,1.7V20c0,0.1,0,0.3,0.1,0.3c0.1,0.1,0.2,0.1,0.5,0.1c1.8-0.6,3.3-1.7,4.4-3.2
		c1.1-1.6,1.7-3.3,1.7-5.3C20.6,10.3,20.2,8.8,19.4,7.4z"/>
</g>
</svg>
