<?xml version="1.0" encoding="utf-8"?>
<!-- Generator: Adobe Illustrator 16.0.0, SVG Export Plug-In . SVG Version: 6.00 Build 0)  -->
<!DOCTYPE svg PUBLIC "-//W3C//DTD SVG 1.1//EN" "http://www.w3.org/Graphics/SVG/1.1/DTD/svg11.dtd">
<svg version="1.1" id="Capa_1" xmlns="http://www.w3.org/2000/svg" xmlns:xlink="http://www.w3.org/1999/xlink" x="0px" y="0px"
	 width="23.41px" height="23.402px" viewBox="0 0 23.41 23.402" enable-background="new 0 0 23.41 23.402" xml:space="preserve">
<g>
	<g>
		<path fill="#FFFFFF" d="M17.898,13.039v4.58h-2.654v-4.272c0-1.072-0.383-1.807-1.345-1.807c-0.733,0-1.17,0.494-1.362,0.972
			c-0.07,0.171-0.089,0.408-0.089,0.646v4.461H9.793c0,0,0.036-7.237,0-7.986h2.655v1.133c-0.004,0.009-0.012,0.018-0.016,0.025
			h0.016v-0.025c0.354-0.544,0.984-1.319,2.395-1.319C16.589,9.445,17.898,10.587,17.898,13.039L17.898,13.039z M7.015,5.783
			c-0.908,0-1.503,0.595-1.503,1.379c0,0.768,0.578,1.381,1.467,1.381h0.018c0.926,0,1.502-0.613,1.502-1.381
			C8.482,6.378,7.924,5.783,7.015,5.783L7.015,5.783z M5.67,17.619h2.654V9.633H5.67V17.619z"/>
	</g>
</g>
</svg>
