<?xml version="1.0" encoding="utf-8"?>
<!-- Generator: Adobe Illustrator 16.0.0, SVG Export Plug-In . SVG Version: 6.00 Build 0)  -->
<!DOCTYPE svg PUBLIC "-//W3C//DTD SVG 1.1//EN" "http://www.w3.org/Graphics/SVG/1.1/DTD/svg11.dtd">
<svg version="1.1" id="Capa_1" xmlns="http://www.w3.org/2000/svg" xmlns:xlink="http://www.w3.org/1999/xlink" x="0px" y="0px"
	 width="23.41px" height="23.402px" viewBox="0 0 23.41 23.402" enable-background="new 0 0 23.41 23.402" xml:space="preserve">
<g>
	<g>
		<path fill="#FFFFFF" d="M11.702,5.168c0.95,0,1.899,0.002,2.849,0c0.883-0.003,1.676,0.254,2.357,0.814
			c0.621,0.507,1.041,1.152,1.219,1.937c0.064,0.289,0.104,0.595,0.105,0.892c0.011,1.928,0.011,3.854,0.004,5.778
			c-0.004,1.137-0.439,2.077-1.305,2.808c-0.664,0.562-1.445,0.833-2.318,0.834c-1.941,0.003-3.881,0.016-5.822-0.004
			c-1.406-0.019-2.469-0.662-3.174-1.879c-0.309-0.531-0.441-1.124-0.441-1.743c0-1.938-0.017-3.875,0.003-5.813
			c0.015-1.408,0.661-2.475,1.88-3.18c0.54-0.315,1.139-0.443,1.765-0.443C9.784,5.168,10.742,5.168,11.702,5.168z M11.705,17.071
			c0.954,0,1.908,0,2.859,0c0.381-0.001,0.748-0.057,1.09-0.228c0.93-0.468,1.414-1.226,1.422-2.262
			c0.012-1.922,0.004-3.847,0.003-5.771c-0.001-0.365-0.058-0.722-0.222-1.049c-0.459-0.936-1.219-1.431-2.26-1.438
			c-1.932-0.014-3.855-0.004-5.785-0.002c-0.625,0-1.18,0.195-1.646,0.611C6.6,7.445,6.334,8.087,6.334,8.844
			c0.002,1.846,0,3.688,0.002,5.533c0,0.142,0.001,0.281,0.013,0.419c0.061,0.806,0.438,1.43,1.101,1.875
			c0.422,0.285,0.896,0.4,1.399,0.399C9.801,17.07,10.753,17.071,11.705,17.071z"/>
		<path fill="#FFFFFF" d="M11.703,15.063c-1.851-0.002-3.364-1.519-3.363-3.367c0.004-1.85,1.517-3.365,3.368-3.363
			c1.853,0.002,3.366,1.521,3.364,3.367C15.068,13.552,13.553,15.064,11.703,15.063z M11.71,13.905
			c1.217-0.006,2.207-0.999,2.202-2.21c-0.006-1.217-1-2.208-2.21-2.202c-1.218,0.005-2.207,0.998-2.203,2.209
			C9.505,12.919,10.497,13.909,11.71,13.905z"/>
		<path fill="#FFFFFF" d="M15.217,9.046c-0.467,0.002-0.854-0.382-0.854-0.848c0.002-0.462,0.382-0.842,0.847-0.847
			c0.462-0.004,0.856,0.385,0.854,0.849S15.68,9.044,15.217,9.046z"/>
	</g>
</g>
</svg>
