<?xml version="1.0" encoding="utf-8"?>
<!-- Generator: Adobe Illustrator 16.0.0, SVG Export Plug-In . SVG Version: 6.00 Build 0)  -->
<!DOCTYPE svg PUBLIC "-//W3C//DTD SVG 1.1//EN" "http://www.w3.org/Graphics/SVG/1.1/DTD/svg11.dtd">
<svg version="1.1" id="Capa_1" xmlns="http://www.w3.org/2000/svg" xmlns:xlink="http://www.w3.org/1999/xlink" x="0px" y="0px"
	 width="23.41px" height="23.402px" viewBox="0 0 23.41 23.402" enable-background="new 0 0 23.41 23.402" xml:space="preserve">
<g>
	<path fill-rule="evenodd" clip-rule="evenodd" fill="#FFFFFF" d="M1.9,4.483c6.55,0,13.051,0,19.607,0
		c-0.191,0.209-0.352,0.391-0.518,0.566c-2.832,2.989-5.662,5.979-8.496,8.966c-0.59,0.622-0.988,0.625-1.571,0.011
		c-2.952-3.113-5.9-6.229-8.851-9.345C2.023,4.629,1.979,4.573,1.9,4.483z"/>
	<path fill-rule="evenodd" clip-rule="evenodd" fill="#FFFFFF" d="M1.872,18.919c2.088-2.204,4.123-4.353,6.175-6.52
		c0.723,0.764,1.42,1.516,2.136,2.249c0.231,0.235,0.489,0.468,0.779,0.614c0.699,0.352,1.475,0.199,2.021-0.366
		c0.713-0.737,1.414-1.488,2.119-2.235c0.072-0.078,0.131-0.169,0.225-0.29c2.084,2.199,4.123,4.352,6.203,6.548
		C14.963,18.919,8.462,18.919,1.872,18.919z"/>
	<path fill-rule="evenodd" clip-rule="evenodd" fill="#FFFFFF" d="M22.643,18.685c-2.232-2.355-4.414-4.658-6.621-6.989
		c2.195-2.318,4.383-4.627,6.621-6.989C22.643,9.385,22.643,13.988,22.643,18.685z"/>
	<path fill-rule="evenodd" clip-rule="evenodd" fill="#FFFFFF" d="M0.768,4.713c2.227,2.351,4.408,4.654,6.613,6.982
		c-2.194,2.317-4.38,4.626-6.613,6.983C0.768,14.004,0.768,9.398,0.768,4.713z"/>
</g>
</svg>
