<?xml version="1.0" encoding="utf-8"?>
<!-- Generator: Adobe Illustrator 16.0.0, SVG Export Plug-In . SVG Version: 6.00 Build 0)  -->
<!DOCTYPE svg PUBLIC "-//W3C//DTD SVG 1.1//EN" "http://www.w3.org/Graphics/SVG/1.1/DTD/svg11.dtd">
<svg version="1.1" id="Capa_1" xmlns="http://www.w3.org/2000/svg" xmlns:xlink="http://www.w3.org/1999/xlink" x="0px" y="0px"
	 width="23.41px" height="23.402px" viewBox="0 0 23.41 23.402" enable-background="new 0 0 23.41 23.402" xml:space="preserve">
<path fill="#FFFFFF" d="M18.096,7.451c0,0.832,0,1.664,0,2.497c-1.277,0.046-2.414-0.381-3.512-1.09c0,0.168,0,0.275,0,0.386
	c-0.004,1.632,0.018,3.267-0.014,4.898c-0.037,1.982-1.434,3.733-3.35,4.262c-0.281,0.076-0.569,0.125-0.854,0.187
	c-0.284,0-0.568,0-0.852,0c-0.045-0.016-0.09-0.043-0.137-0.049c-1.987-0.257-3.542-1.692-3.954-3.65
	c-0.039-0.187-0.073-0.373-0.109-0.561c0-0.264,0-0.529,0-0.792c0.017-0.047,0.041-0.092,0.047-0.141
	c0.284-1.925,1.357-3.208,3.179-3.86c0.655-0.233,1.338-0.261,2.048-0.173c0,0.8,0,1.57-0.001,2.339
	c0,0.059-0.013,0.115-0.022,0.189c-0.074-0.014-0.131-0.023-0.189-0.035c-1.457-0.268-2.769,0.972-2.534,2.393
	c0.185,1.11,1.151,1.906,2.226,1.834c1.148-0.077,2-0.985,2.009-2.152c0.008-0.831,0.003-1.663,0.001-2.496
	c-0.001-2.484-0.005-4.97-0.008-7.454c0.833,0,1.665,0,2.497,0c0.052,0.803,0.263,1.553,0.793,2.177
	C16.074,6.997,16.959,7.497,18.096,7.451z"/>
</svg>
