<?xml version="1.0" encoding="utf-8"?>
<!-- Generator: Adobe Illustrator 16.0.0, SVG Export Plug-In . SVG Version: 6.00 Build 0)  -->
<!DOCTYPE svg PUBLIC "-//W3C//DTD SVG 1.1//EN" "http://www.w3.org/Graphics/SVG/1.1/DTD/svg11.dtd">
<svg version="1.1" id="Capa_1" xmlns="http://www.w3.org/2000/svg" xmlns:xlink="http://www.w3.org/1999/xlink" x="0px" y="0px"
	 width="23.41px" height="23.402px" viewBox="0 0 23.41 23.402" enable-background="new 0 0 23.41 23.402" xml:space="preserve">
<g>
	<g>
		<g>
			<g>
				<g>
					<path fill="#FFFFFF" d="M6.049,6.605c0,0,1.934,2.668,5.332,2.838c0,0-0.293-2.152,1.514-2.971
						c1.89-0.855,3.183,0.729,3.183,0.729s0.94-0.084,1.59-0.813c0,0,0.304,0.686-0.688,1.377c0,0,0.646,0.079,1.115-0.306
						c0,0,0.084,0.945-1.248,1.373c0,0,0.389,11.148-11.529,6.896c0,0,2.797,0.209,3.656-1.164c0,0-1.715,0.084-2.408-1.939
						c0,0,0.646,0.267,1.074-0.125c0,0-1.551,0-1.939-2.498c0,0,0.559,0.301,1.037,0.213C6.736,10.215,5.098,9.273,6.049,6.605z"/>
				</g>
			</g>
		</g>
	</g>
</g>
</svg>
