<?xml version="1.0" encoding="utf-8"?>
<!-- Generator: Adobe Illustrator 16.0.0, SVG Export Plug-In . SVG Version: 6.00 Build 0)  -->
<!DOCTYPE svg PUBLIC "-//W3C//DTD SVG 1.1//EN" "http://www.w3.org/Graphics/SVG/1.1/DTD/svg11.dtd">
<svg version="1.1" id="Capa_1" xmlns="http://www.w3.org/2000/svg" xmlns:xlink="http://www.w3.org/1999/xlink" x="0px" y="0px"
	 width="23.41px" height="23.402px" viewBox="0 0 23.41 23.402" enable-background="new 0 0 23.41 23.402" xml:space="preserve">
<g>
	<g>
		<path fill="#FFFFFF" d="M4.202,19.244c0.115-0.322,0.223-0.627,0.333-0.932c0.312-0.869,0.625-1.738,0.934-2.607
			c0.012-0.032,0-0.084-0.021-0.115c-0.321-0.508-0.584-1.044-0.784-1.609c-0.251-0.715-0.392-1.449-0.404-2.207
			c-0.027-1.728,0.48-3.285,1.523-4.659c0.985-1.297,2.27-2.182,3.833-2.652c0.78-0.234,1.579-0.328,2.393-0.299
			c1.39,0.052,2.665,0.46,3.825,1.222c1.098,0.721,1.947,1.671,2.55,2.834c0.407,0.785,0.665,1.619,0.769,2.5
			c0.218,1.855-0.188,3.567-1.237,5.11c-0.979,1.438-2.31,2.421-3.974,2.943c-0.807,0.254-1.629,0.363-2.47,0.331
			c-0.922-0.038-1.794-0.283-2.629-0.667c-0.19-0.087-0.376-0.188-0.565-0.274c-0.043-0.021-0.103-0.031-0.147-0.018
			c-1.057,0.293-2.111,0.59-3.166,0.887C4.715,19.1,4.466,19.171,4.202,19.244z M6.042,17.529c0.033-0.009,0.048-0.013,0.063-0.017
			c0.687-0.193,1.374-0.388,2.06-0.581c0.063-0.019,0.109-0.011,0.166,0.023c0.206,0.121,0.413,0.245,0.626,0.352
			c0.707,0.351,1.454,0.561,2.241,0.625c0.665,0.054,1.321,0.012,1.972-0.14c0.648-0.149,1.258-0.396,1.829-0.742
			c0.962-0.58,1.716-1.36,2.265-2.341c0.405-0.728,0.655-1.507,0.75-2.336c0.07-0.616,0.061-1.229-0.049-1.84
			c-0.171-0.968-0.544-1.853-1.13-2.645c-0.831-1.122-1.913-1.895-3.248-2.306c-0.815-0.252-1.651-0.33-2.503-0.242
			C10.52,5.399,9.974,5.523,9.45,5.73C7.898,6.348,6.749,7.406,6.023,8.912c-0.592,1.23-0.751,2.528-0.509,3.871
			c0.163,0.908,0.514,1.746,1.063,2.488c0.148,0.2,0.16,0.357,0.073,0.581C6.435,16.398,6.247,16.956,6.042,17.529z"/>
		<path fill="#FFFFFF" d="M13.8,15.661c-0.415,0.007-0.793-0.137-1.175-0.272c-0.942-0.336-1.771-0.852-2.491-1.542
			c-0.608-0.586-1.128-1.24-1.592-1.942c-0.306-0.462-0.572-0.942-0.72-1.48C7.626,9.717,7.661,9.031,8.027,8.385
			c0.119-0.208,0.281-0.395,0.44-0.576c0.128-0.146,0.304-0.21,0.502-0.204c0.116,0.005,0.233,0.01,0.35,0.004
			c0.2-0.011,0.32,0.095,0.389,0.267c0.137,0.342,0.268,0.688,0.401,1.03c0.072,0.182,0.126,0.374,0.219,0.544
			c0.162,0.302,0.063,0.555-0.111,0.797c-0.118,0.166-0.25,0.32-0.379,0.479c-0.106,0.13-0.12,0.227-0.039,0.375
			c0.358,0.646,0.794,1.229,1.359,1.711c0.425,0.363,0.907,0.638,1.416,0.862c0.146,0.065,0.242,0.044,0.344-0.085
			c0.214-0.276,0.425-0.556,0.631-0.838c0.122-0.167,0.21-0.211,0.396-0.123c0.334,0.155,0.662,0.323,0.992,0.49
			c0.219,0.111,0.435,0.23,0.651,0.345c0.104,0.056,0.173,0.134,0.168,0.26c-0.013,0.408-0.034,0.824-0.306,1.152
			c-0.373,0.453-0.85,0.739-1.452,0.773C13.932,15.652,13.866,15.659,13.8,15.661z"/>
	</g>
</g>
</svg>
