<?xml version="1.0" encoding="utf-8"?>
<!-- Generator: Adobe Illustrator 16.0.0, SVG Export Plug-In . SVG Version: 6.00 Build 0)  -->
<!DOCTYPE svg PUBLIC "-//W3C//DTD SVG 1.1//EN" "http://www.w3.org/Graphics/SVG/1.1/DTD/svg11.dtd">
<svg version="1.1" id="Capa_1" xmlns="http://www.w3.org/2000/svg" xmlns:xlink="http://www.w3.org/1999/xlink" x="0px" y="0px"
	 width="15.122px" height="15.675px" viewBox="0 0 15.122 15.675" enable-background="new 0 0 15.122 15.675" xml:space="preserve">
<g>
	<g>
		<g id="Shape_16_copy">
			<g>
				<path fill="#FFFFFF" d="M8.129,13.124l1.093-2.434c2.214-0.703,3.816-2.772,3.816-5.217C13.039,2.452,10.587,0,7.561,0
					C4.536,0,2.083,2.452,2.083,5.473c0,2.501,1.68,4.61,3.974,5.264l1.128,2.379c-0.016,0-0.031,0.003-0.045,0.004
					c0.015-0.001,0.031-0.001,0.045-0.001l0.486,1.024l0.453-1.009c1.183,0.12,2.067,0.586,2.067,0.855
					c0,0.313-1.182,0.568-2.64,0.568c-1.456,0-2.64-0.253-2.64-0.568c0-0.284,0.966-0.777,2.228-0.869
					c-2.051,0.044-3.658,0.417-3.648,0.869c0.021,0.932,1.818,1.563,4.061,1.563s4.083-0.653,4.061-1.563
					C11.604,13.547,10.097,13.183,8.129,13.124z M7.511,9.378c-2.15,0-3.892-1.742-3.892-3.888c0-2.146,1.741-3.887,3.892-3.887
					c2.147,0,3.891,1.74,3.891,3.887C11.402,7.637,9.66,9.378,7.511,9.378z M7.606,3.704c-0.968,0-1.749,0.784-1.749,1.749
					c0,0.966,0.783,1.75,1.749,1.75c0.967,0,1.75-0.784,1.75-1.75C9.356,4.488,8.573,3.704,7.606,3.704z"/>
			</g>
		</g>
	</g>
</g>
</svg>
