<?xml version="1.0" encoding="utf-8"?>
<!-- Generator: Adobe Illustrator 16.0.0, SVG Export Plug-In . SVG Version: 6.00 Build 0)  -->
<!DOCTYPE svg PUBLIC "-//W3C//DTD SVG 1.1//EN" "http://www.w3.org/Graphics/SVG/1.1/DTD/svg11.dtd">
<svg version="1.1" id="Capa_1" xmlns="http://www.w3.org/2000/svg" xmlns:xlink="http://www.w3.org/1999/xlink" x="0px" y="0px"
	 width="15.122px" height="15.675px" viewBox="0 0 15.122 15.675" enable-background="new 0 0 15.122 15.675" xml:space="preserve">
<g>
	<g>
		<path fill="#FFFFFF" d="M10.764,6.19c-0.207,0-0.387,0-0.563,0c-0.074-0.358-0.147-0.713-0.224-1.08
			c-0.711,0.15-1.418,0.234-2.14,0.248c0,0.279,0,0.552,0,0.83c-0.185,0-0.359,0-0.543,0c0-0.272,0-0.545,0-0.829
			C6.57,5.34,5.862,5.265,5.148,5.107C5.074,5.473,5,5.83,4.925,6.19c-0.179,0-0.359,0-0.563,0C4.444,5.781,4.522,5.381,4.602,4.98
			C4.336,4.886,4.063,4.799,3.797,4.692c-0.268-0.108-0.526-0.236-0.8-0.361c-0.212,0.267-0.409,0.561-0.561,0.88
			C2.285,5.53,2.154,5.858,2.01,6.19c-0.165,0-0.35,0-0.534,0c0.522-2.18,2.601-4.398,5.525-4.644
			c3.437-0.289,6.003,2.089,6.653,4.642c-0.187,0-0.375,0-0.566,0c-0.172-0.565-0.425-1.095-0.76-1.584
			c-0.064-0.095-0.136-0.188-0.206-0.286c-0.513,0.284-1.047,0.494-1.601,0.65C10.6,5.376,10.681,5.776,10.764,6.19z M7.286,2.108
			C7.239,2.12,7.2,2.126,7.165,2.137c-0.354,0.115-0.63,0.342-0.873,0.614C5.998,3.083,5.776,3.463,5.595,3.867
			C5.493,4.097,5.403,4.332,5.305,4.575c0.665,0.143,1.316,0.219,1.981,0.231C7.286,3.902,7.286,3.012,7.286,2.108z M9.8,4.578
			C9.799,4.562,9.799,4.55,9.795,4.539c-0.19-0.56-0.433-1.095-0.788-1.571C8.784,2.667,8.521,2.402,8.183,2.23
			C8.078,2.177,7.962,2.143,7.841,2.095c0,0.918,0,1.81,0,2.71C8.506,4.792,9.157,4.718,9.8,4.578z M9.188,2.317
			c0.282,0.304,0.515,0.636,0.694,1c0.179,0.365,0.33,0.741,0.497,1.118c0.466-0.132,0.929-0.307,1.374-0.542
			C11.273,3.281,9.93,2.456,9.188,2.317z M5.936,2.318C5.2,2.453,3.622,3.431,3.381,3.898C3.822,4.13,4.285,4.304,4.745,4.436
			c0.166-0.375,0.32-0.748,0.496-1.111C5.419,2.958,5.653,2.624,5.936,2.318z"/>
		<path fill="#FFFFFF" d="M1.468,9.483c0.181,0,0.353-0.002,0.525,0.003c0.021,0,0.052,0.033,0.061,0.057
			c0.177,0.567,0.438,1.092,0.777,1.579c0.054,0.079,0.113,0.152,0.172,0.234c0.51-0.282,1.045-0.491,1.6-0.651
			c-0.081-0.405-0.159-0.806-0.241-1.216c0.201,0,0.383,0,0.563,0c0.073,0.354,0.146,0.709,0.221,1.076
			c0.71-0.149,1.417-0.234,2.14-0.247c0-0.279,0-0.553,0-0.83c0.185,0,0.358,0,0.543,0c0,0.272,0,0.544,0,0.83
			c0.722,0.015,1.43,0.096,2.145,0.248c0.076-0.363,0.15-0.719,0.223-1.08c0.177,0,0.358,0,0.563,0
			c-0.08,0.408-0.159,0.808-0.239,1.219c0.548,0.156,1.084,0.365,1.605,0.656c0.123-0.184,0.25-0.362,0.365-0.549
			c0.245-0.393,0.434-0.813,0.571-1.255c0.019-0.058,0.041-0.079,0.104-0.078c0.16,0.005,0.32,0.002,0.482,0.002
			c-0.55,2.237-2.68,4.5-5.745,4.662C4.672,14.316,2.15,12.098,1.468,9.483z M7.283,13.566c0-0.904,0-1.797,0-2.696
			c-0.665,0.015-1.316,0.087-1.963,0.229c0.008,0.028,0.013,0.049,0.019,0.067c0.141,0.419,0.317,0.821,0.546,1.198
			c0.246,0.402,0.535,0.768,0.943,1.018C6.968,13.468,7.115,13.536,7.283,13.566z M7.841,13.568
			c0.051-0.014,0.092-0.021,0.134-0.033c0.271-0.093,0.498-0.251,0.701-0.448c0.386-0.376,0.655-0.829,0.87-1.317
			c0.097-0.218,0.181-0.438,0.272-0.668c-0.662-0.145-1.315-0.217-1.978-0.231C7.841,11.773,7.841,12.666,7.841,13.568z
			 M4.77,11.233c-0.487,0.141-0.953,0.313-1.395,0.55c0.454,0.597,1.886,1.477,2.561,1.574C5.374,12.741,5.031,12.011,4.77,11.233z
			 M9.177,13.373c1.014-0.311,1.864-0.832,2.583-1.588c-0.457-0.236-0.921-0.418-1.404-0.55C10.091,12.016,9.75,12.744,9.177,13.373
			z"/>
		<path fill="#FFFFFF" d="M11.68,7.299c-0.064,0.181-0.124,0.348-0.185,0.515c-0.124,0.351-0.25,0.7-0.371,1.05
			c-0.02,0.057-0.046,0.072-0.101,0.072c-0.164-0.003-0.329-0.004-0.492,0c-0.055,0.002-0.082-0.014-0.102-0.07
			c-0.217-0.691-0.438-1.381-0.659-2.072C9.766,6.78,9.765,6.766,9.758,6.739c0.19,0,0.375-0.002,0.559,0.003
			c0.021,0.001,0.055,0.04,0.063,0.066c0.135,0.453,0.268,0.906,0.399,1.36c0.006,0.017,0.013,0.032,0.025,0.071
			c0.062-0.169,0.116-0.319,0.17-0.469c0.115-0.322,0.228-0.644,0.342-0.966c0.014-0.041,0.026-0.066,0.079-0.065
			c0.189,0.004,0.38,0.006,0.57,0.002c0.062-0.001,0.087,0.02,0.105,0.078c0.153,0.462,0.309,0.924,0.464,1.386
			c0.005,0.017,0.015,0.033,0.025,0.058c0.151-0.511,0.298-1.013,0.445-1.518c0.195,0,0.39,0,0.589,0
			c-0.002,0.02-0.002,0.04-0.009,0.058c-0.224,0.693-0.451,1.385-0.673,2.078c-0.017,0.054-0.046,0.06-0.091,0.06
			c-0.161-0.002-0.32-0.005-0.481,0.001c-0.064,0.002-0.087-0.025-0.107-0.08c-0.177-0.501-0.354-1.002-0.532-1.503
			C11.698,7.343,11.692,7.33,11.68,7.299z"/>
		<path fill="#FFFFFF" d="M1.522,6.739c0.192,0,0.374-0.003,0.554,0.002c0.023,0,0.057,0.039,0.064,0.064
			c0.104,0.347,0.205,0.695,0.306,1.043c0.038,0.124,0.075,0.25,0.117,0.394c0.08-0.22,0.151-0.422,0.222-0.623
			c0.096-0.271,0.194-0.542,0.287-0.815c0.019-0.05,0.042-0.07,0.096-0.068c0.185,0.003,0.37,0.004,0.554-0.001
			c0.063-0.001,0.086,0.022,0.105,0.079c0.146,0.446,0.295,0.89,0.444,1.335c0.01,0.03,0.021,0.061,0.041,0.118
			c0.063-0.214,0.118-0.4,0.174-0.588c0.085-0.29,0.171-0.582,0.252-0.873C4.753,6.755,4.776,6.736,4.83,6.738
			c0.169,0.003,0.339,0.001,0.524,0.001C5.311,6.873,5.272,6.995,5.233,7.118C5.046,7.695,4.86,8.27,4.676,8.847
			C4.654,8.917,4.622,8.938,4.55,8.936c-0.148-0.005-0.297-0.004-0.447,0C4.042,8.938,4.011,8.923,3.989,8.859
			C3.825,8.384,3.655,7.912,3.487,7.438c-0.015-0.041-0.029-0.082-0.051-0.14c-0.07,0.199-0.135,0.382-0.2,0.567
			C3.118,8.198,2.998,8.531,2.883,8.864C2.864,8.917,2.84,8.94,2.782,8.94C2.609,8.936,2.437,8.941,2.263,8.935
			c-0.024-0.001-0.059-0.042-0.069-0.07C2.062,8.456,1.932,8.044,1.801,7.634C1.716,7.362,1.629,7.091,1.544,6.819
			C1.536,6.794,1.531,6.771,1.522,6.739z"/>
		<path fill="#FFFFFF" d="M6.689,8.245c0.148-0.417,0.287-0.812,0.427-1.207c0.029-0.081,0.055-0.163,0.09-0.242
			C7.217,6.772,7.254,6.745,7.28,6.744c0.197-0.005,0.394,0,0.59-0.005c0.058,0,0.067,0.032,0.082,0.072
			c0.154,0.465,0.311,0.93,0.464,1.395C8.42,8.22,8.425,8.233,8.438,8.27C8.489,8.095,8.533,7.943,8.58,7.791
			c0.096-0.328,0.193-0.655,0.287-0.983C8.881,6.758,8.9,6.739,8.952,6.74c0.173,0.003,0.344,0.001,0.527,0.001
			C9.417,6.941,9.357,7.133,9.292,7.324C9.127,7.834,8.96,8.344,8.797,8.858C8.779,8.921,8.749,8.94,8.686,8.94
			C8.521,8.936,8.358,8.933,8.194,8.938C8.132,8.94,8.13,8.897,8.118,8.861c-0.169-0.47-0.334-0.941-0.5-1.411
			C7.602,7.407,7.586,7.366,7.563,7.305c-0.022,0.058-0.04,0.1-0.055,0.142C7.343,7.917,7.175,8.387,7.012,8.86
			C6.991,8.919,6.964,8.941,6.9,8.94C6.737,8.935,6.572,8.938,6.409,8.938C6.367,8.94,6.34,8.934,6.324,8.883
			C6.102,8.175,5.877,7.468,5.652,6.76C5.651,6.758,5.653,6.754,5.654,6.744c0.193,0,0.388,0,0.595,0
			C6.393,7.235,6.538,7.73,6.689,8.245z"/>
	</g>
</g>
</svg>
